<svg width="38" height="39" viewBox="0 0 38 39" fill="none" xmlns="http://www.w3.org/2000/svg">
<g filter="url(#filter0_d_713_442)">
<path d="M19 3.02051C23.0078 3.02051 23.4824 3.03809 25.0586 3.1084C26.5234 3.17285 27.3145 3.41895 27.8418 3.62402C28.5391 3.89355 29.043 4.22168 29.5645 4.74316C30.0918 5.27051 30.4141 5.76856 30.6836 6.46582C30.8887 6.99316 31.1348 7.79004 31.1992 9.24902C31.2695 10.8311 31.2871 11.3057 31.2871 15.3076C31.2871 19.3154 31.2695 19.79 31.1992 21.3662C31.1348 22.8311 30.8887 23.6221 30.6836 24.1494C30.4141 24.8467 30.0859 25.3506 29.5645 25.8721C29.0371 26.3994 28.5391 26.7217 27.8418 26.9912C27.3145 27.1963 26.5176 27.4424 25.0586 27.5068C23.4766 27.5771 23.002 27.5947 19 27.5947C14.9922 27.5947 14.5176 27.5771 12.9414 27.5068C11.4766 27.4424 10.6855 27.1963 10.1582 26.9912C9.46094 26.7217 8.95703 26.3936 8.43555 25.8721C7.9082 25.3447 7.58594 24.8467 7.31641 24.1494C7.11133 23.6221 6.86523 22.8252 6.80078 21.3662C6.73047 19.7842 6.71289 19.3096 6.71289 15.3076C6.71289 11.2998 6.73047 10.8252 6.80078 9.24902C6.86523 7.78418 7.11133 6.99316 7.31641 6.46582C7.58594 5.76856 7.91406 5.26465 8.43555 4.74316C8.96289 4.21582 9.46094 3.89355 10.1582 3.62402C10.6855 3.41895 11.4824 3.17285 12.9414 3.1084C14.5176 3.03809 14.9922 3.02051 19 3.02051ZM19 0.319336C14.9277 0.319336 14.418 0.336914 12.8184 0.407227C11.2246 0.477539 10.1289 0.735351 9.17969 1.10449C8.18945 1.49121 7.35156 2.00098 6.51953 2.83887C5.68164 3.6709 5.17188 4.50879 4.78516 5.49316C4.41602 6.44824 4.1582 7.53809 4.08789 9.13184C4.01758 10.7373 4 11.2471 4 15.3193C4 19.3916 4.01758 19.9014 4.08789 21.501C4.1582 23.0947 4.41602 24.1904 4.78516 25.1396C5.17188 26.1299 5.68164 26.9678 6.51953 27.7998C7.35156 28.6318 8.18945 29.1475 9.17383 29.5283C10.1289 29.8975 11.2188 30.1553 12.8125 30.2256C14.4121 30.2959 14.9219 30.3135 18.9941 30.3135C23.0664 30.3135 23.5762 30.2959 25.1758 30.2256C26.7695 30.1553 27.8652 29.8975 28.8145 29.5283C29.7988 29.1475 30.6367 28.6318 31.4688 27.7998C32.3008 26.9678 32.8164 26.1299 33.1973 25.1455C33.5664 24.1904 33.8242 23.1006 33.8945 21.5068C33.9648 19.9072 33.9824 19.3975 33.9824 15.3252C33.9824 11.2529 33.9648 10.7432 33.8945 9.14355C33.8242 7.5498 33.5664 6.4541 33.1973 5.50488C32.8281 4.50879 32.3184 3.6709 31.4805 2.83887C30.6484 2.00684 29.8105 1.49121 28.8262 1.11035C27.8711 0.741211 26.7813 0.483398 25.1875 0.413086C23.582 0.336914 23.0723 0.319336 19 0.319336Z" fill="white"/>
<path d="M19 7.61328C14.7461 7.61328 11.2949 11.0645 11.2949 15.3184C11.2949 19.5723 14.7461 23.0234 19 23.0234C23.2539 23.0234 26.7051 19.5723 26.7051 15.3184C26.7051 11.0645 23.2539 7.61328 19 7.61328ZM19 20.3164C16.2402 20.3164 14.002 18.0781 14.002 15.3184C14.002 12.5586 16.2402 10.3203 19 10.3203C21.7598 10.3203 23.998 12.5586 23.998 15.3184C23.998 18.0781 21.7598 20.3164 19 20.3164Z" fill="white"/>
<path d="M28.8086 7.30274C28.8086 8.29883 28 9.10157 27.0098 9.10157C26.0137 9.10157 25.2109 8.29297 25.2109 7.30274C25.2109 6.30664 26.0195 5.50391 27.0098 5.50391C28 5.50391 28.8086 6.3125 28.8086 7.30274Z" fill="white"/>
</g>
<defs>
<filter id="filter0_d_713_442" x="0" y="0.319336" width="37.9824" height="37.9941" filterUnits="userSpaceOnUse" color-interpolation-filters="sRGB">
<feFlood flood-opacity="0" result="BackgroundImageFix"/>
<feColorMatrix in="SourceAlpha" type="matrix" values="0 0 0 0 0 0 0 0 0 0 0 0 0 0 0 0 0 0 127 0" result="hardAlpha"/>
<feOffset dy="4"/>
<feGaussianBlur stdDeviation="2"/>
<feComposite in2="hardAlpha" operator="out"/>
<feColorMatrix type="matrix" values="0 0 0 0 0 0 0 0 0 0 0 0 0 0 0 0 0 0 0.25 0"/>
<feBlend mode="normal" in2="BackgroundImageFix" result="effect1_dropShadow_713_442"/>
<feBlend mode="normal" in="SourceGraphic" in2="effect1_dropShadow_713_442" result="shape"/>
</filter>
</defs>
</svg>
