<svg width="38" height="33" viewBox="0 0 38 33" fill="none" xmlns="http://www.w3.org/2000/svg">
<g filter="url(#filter0_d_713_441)">
<path d="M13.4377 24.8193C24.7557 24.8193 30.9479 15.5849 30.9479 7.5792C30.9479 7.3196 30.942 7.05422 30.9303 6.79461C32.1348 5.93692 33.1744 4.87455 34 3.65742C32.8782 4.14885 31.6871 4.4698 30.4674 4.60931C31.7516 3.8514 32.7132 2.66075 33.1738 1.25809C31.9657 1.96304 30.6445 2.46031 29.2668 2.72861C28.3385 1.75751 27.1112 1.11452 25.7746 0.899066C24.438 0.683609 23.0665 0.907681 21.8722 1.53664C20.6779 2.16559 19.7273 3.1644 19.1673 4.37864C18.6074 5.59288 18.4693 6.95492 18.7744 8.25418C16.3281 8.13331 13.9349 7.50763 11.75 6.41769C9.56503 5.32775 7.63712 3.7979 6.09121 1.92729C5.3055 3.26106 5.06507 4.83934 5.41879 6.34138C5.77251 7.84341 6.69383 9.15648 7.99551 10.0137C7.01829 9.98318 6.06247 9.72413 5.20703 9.25799V9.33298C5.20616 10.7327 5.69762 12.0895 6.59789 13.1727C7.49815 14.256 8.75165 14.9989 10.1453 15.2751C9.24007 15.5189 8.28998 15.5545 7.36855 15.3789C7.76182 16.5827 8.52697 17.6355 9.55721 18.3905C10.5875 19.1454 11.8314 19.5649 13.1154 19.5903C10.9355 21.2762 8.24272 22.1907 5.4707 22.1864C4.97911 22.1856 4.488 22.1559 4 22.0975C6.81607 23.8763 10.0919 24.8211 13.4377 24.8193Z" fill="white"/>
</g>
<defs>
<filter id="filter0_d_713_441" x="0" y="0.819336" width="38" height="32" filterUnits="userSpaceOnUse" color-interpolation-filters="sRGB">
<feFlood flood-opacity="0" result="BackgroundImageFix"/>
<feColorMatrix in="SourceAlpha" type="matrix" values="0 0 0 0 0 0 0 0 0 0 0 0 0 0 0 0 0 0 127 0" result="hardAlpha"/>
<feOffset dy="4"/>
<feGaussianBlur stdDeviation="2"/>
<feComposite in2="hardAlpha" operator="out"/>
<feColorMatrix type="matrix" values="0 0 0 0 0 0 0 0 0 0 0 0 0 0 0 0 0 0 0.25 0"/>
<feBlend mode="normal" in2="BackgroundImageFix" result="effect1_dropShadow_713_441"/>
<feBlend mode="normal" in="SourceGraphic" in2="effect1_dropShadow_713_441" result="shape"/>
</filter>
</defs>
</svg>
